<svg xmlns="http://www.w3.org/2000/svg" width="16" height="16" viewBox="0 0 16 16">
  <g id="sofa" transform="translate(-1.5 -9.75)">
    <path id="Pfad_43" data-name="Pfad 43" d="M15.9,15.384V11.709A1.809,1.809,0,0,0,14.3,9.75H4.7a1.809,1.809,0,0,0-1.6,1.959v3.675a2.58,2.58,0,0,0-1.6,2.53v4.571a1.206,1.206,0,0,0,1.067,1.306H3.1V25.75H4.167V23.791H14.833V25.75H15.9V23.791h.533A1.206,1.206,0,0,0,17.5,22.485V17.913A2.58,2.58,0,0,0,15.9,15.384Zm-11.2,7.1H2.567V17.913a1.2,1.2,0,0,1,1.067-1.306A1.2,1.2,0,0,1,4.7,17.913Zm8.533,0H5.767V18.566h7.467ZM13.3,17.26H5.7a2.431,2.431,0,0,0-1.532-1.877V11.709a.6.6,0,0,1,.533-.653h9.6a.6.6,0,0,1,.533.653v3.675A2.431,2.431,0,0,0,13.3,17.26Zm3.133,5.225H14.3V17.913a1.2,1.2,0,0,1,1.067-1.306,1.2,1.2,0,0,1,1.067,1.306v4.571Z" transform="translate(0 0)" fill="#113352"/>
  </g>
</svg>
