<svg xmlns="http://www.w3.org/2000/svg" xmlns:xlink="http://www.w3.org/1999/xlink" width="74" height="74" viewBox="0 0 74 74">
  <defs>
    <filter id="Ellipse_39" x="0" y="0" width="74" height="74" filterUnits="userSpaceOnUse">
      <feOffset dy="-2" input="SourceAlpha"/>
      <feGaussianBlur stdDeviation="3" result="blur"/>
      <feFlood flood-opacity="0.161"/>
      <feComposite operator="in" in2="blur"/>
      <feComposite in="SourceGraphic"/>
    </filter>
  </defs>
  <g id="Gruppe_490" data-name="Gruppe 490" transform="translate(-287 -197)">
    <g transform="matrix(1, 0, 0, 1, 287, 197)" filter="url(#Ellipse_39)">
      <g id="Ellipse_39-2" data-name="Ellipse 39" transform="translate(9 11)" fill="#fff" stroke="#69d1ff" stroke-width="2">
        <circle cx="28" cy="28" r="28" stroke="none"/>
        <circle cx="28" cy="28" r="27" fill="none"/>
      </g>
    </g>
    <g id="truck-line" transform="translate(309.333 216)">
      <path id="Pfad_56" data-name="Pfad 56" d="M27.2,14h-3.5V9a.944.944,0,0,0-.876-1H3.543a.944.944,0,0,0-.876,1V27a.944.944,0,0,0,.876,1h.876V10H21.942V21.7a4.993,4.993,0,0,1,1.367-.2h.386V16h3.5a1.889,1.889,0,0,1,1.752,2v1h-3.5v2h3.5v5h-2.1a4,4,0,0,0-3.654-2.745A4,4,0,0,0,19.541,26H13.557A3.969,3.969,0,0,0,9.9,23.241a4.142,4.142,0,0,0-3.753,4.316,4.18,4.18,0,0,0,3.643,4.437A4.046,4.046,0,0,0,13.811,28h5.5a4.162,4.162,0,0,0,3.908,3.972A4.162,4.162,0,0,0,27.129,28h2.7a.944.944,0,0,0,.876-1V18A3.777,3.777,0,0,0,27.2,14ZM9.9,30A2.027,2.027,0,0,1,7.986,28.86a2.671,2.671,0,0,1,0-2.469A2.027,2.027,0,0,1,9.9,25.251a2.027,2.027,0,0,1,1.918,1.141,2.671,2.671,0,0,1,0,2.469A2.027,2.027,0,0,1,9.9,30Zm13.291,0a2.278,2.278,0,0,1-1.979-2.459,2.228,2.228,0,0,1,2.123-2.3,2.255,2.255,0,0,1,2.046,2.387A2.284,2.284,0,0,1,23.195,30Z" transform="translate(-1 0)" fill="#69d1ff"/>
    </g>
  </g>
</svg>
