<svg xmlns="http://www.w3.org/2000/svg" width="16" height="16" viewBox="0 0 16 16">
  <g id="truck-line" transform="translate(-2.667 -8)">
    <path id="Pfad_56" data-name="Pfad 56" d="M16.667,12h-2V8.667c0-.368-.224-.667-.5-.667h-11c-.276,0-.5.3-.5.667v12c0,.368.224.667.5.667h.5v-12h10v7.8a2.471,2.471,0,0,1,.78-.133h.22V13.334h2c.552,0,1,.6,1,1.333v.667h-2v1.333h2V20h-1.2a2.356,2.356,0,0,0-2.085-1.83A2.356,2.356,0,0,0,12.3,20H8.882A2.34,2.34,0,0,0,6.8,18.161c-1.178.035-2.125,1.306-2.141,2.878s.9,2.879,2.079,2.958,2.19-1.1,2.293-2.662h3.14c.132,1.509,1.09,2.648,2.23,2.648s2.1-1.139,2.23-2.648h1.54c.276,0,.5-.3.5-.667v-6C18.667,13.194,17.771,12,16.667,12ZM6.8,22.668A1.144,1.144,0,0,1,5.7,21.907a2.049,2.049,0,0,1,0-1.646,1.168,1.168,0,0,1,2.189,0,2.049,2.049,0,0,1,0,1.646A1.144,1.144,0,0,1,6.8,22.668Zm7.585,0a1.475,1.475,0,0,1-1.129-1.64c.022-.866.562-1.548,1.212-1.532a1.443,1.443,0,0,1,1.168,1.591C15.613,21.983,15.054,22.69,14.382,22.668Z" transform="translate(0 0)" fill="#113352"/>
  </g>
</svg>
