<svg xmlns="http://www.w3.org/2000/svg" width="16" height="16" viewBox="0 0 16 16">
  <g id="list" transform="translate(-0.352 -0.281)">
    <g id="Gruppe_217" data-name="Gruppe 217" transform="translate(0.352 0.281)">
      <path id="Pfad_44" data-name="Pfad 44" d="M1.828.7h9.778V1.846H1.828Z" transform="translate(4.394 1.011)" fill="#113352"/>
      <path id="Pfad_45" data-name="Pfad 45" d="M.352,2.567a2.329,2.329,0,0,0,2.37,2.286,2.329,2.329,0,0,0,2.37-2.286A2.329,2.329,0,0,0,2.722.281,2.332,2.332,0,0,0,.352,2.567Zm2.37-1.143A1.165,1.165,0,0,1,3.907,2.567,1.165,1.165,0,0,1,2.722,3.71,1.165,1.165,0,0,1,1.537,2.567,1.166,1.166,0,0,1,2.722,1.424Z" transform="translate(-0.352 -0.281)" fill="#113352"/>
      <path id="Pfad_46" data-name="Pfad 46" d="M1.828,2.109h9.778V3.252H1.828Z" transform="translate(4.394 5.319)" fill="#113352"/>
      <path id="Pfad_47" data-name="Pfad 47" d="M2.722,6.259a2.329,2.329,0,0,0,2.37-2.286,2.329,2.329,0,0,0-2.37-2.286A2.329,2.329,0,0,0,.352,3.973a2.332,2.332,0,0,0,2.37,2.286Zm0-3.429A1.165,1.165,0,0,1,3.907,3.973,1.165,1.165,0,0,1,2.722,5.116,1.165,1.165,0,0,1,1.537,3.973,1.166,1.166,0,0,1,2.722,2.83Z" transform="translate(-0.352 4.027)" fill="#113352"/>
      <path id="Pfad_48" data-name="Pfad 48" d="M1.828,3.516h9.778V4.659H1.828Z" transform="translate(4.394 9.627)" fill="#113352"/>
      <path id="Pfad_49" data-name="Pfad 49" d="M2.722,7.665A2.329,2.329,0,0,0,5.092,5.38a2.329,2.329,0,0,0-2.37-2.286A2.329,2.329,0,0,0,.352,5.38a2.332,2.332,0,0,0,2.37,2.286Zm0-3.429a1.144,1.144,0,1,1,0,2.286,1.144,1.144,0,1,1,0-2.286Z" transform="translate(-0.352 8.335)" fill="#113352"/>
    </g>
  </g>
</svg>
