<svg xmlns="http://www.w3.org/2000/svg" xmlns:xlink="http://www.w3.org/1999/xlink" width="74" height="74" viewBox="0 0 74 74">
  <defs>
    <filter id="Ellipse_39" x="0" y="0" width="74" height="74" filterUnits="userSpaceOnUse">
      <feOffset dy="-3" input="SourceAlpha"/>
      <feGaussianBlur stdDeviation="3" result="blur"/>
      <feFlood flood-opacity="0.161"/>
      <feComposite operator="in" in2="blur"/>
      <feComposite in="SourceGraphic"/>
    </filter>
  </defs>
  <g id="Gruppe_489" data-name="Gruppe 489" transform="translate(-147 -196)">
    <g transform="matrix(1, 0, 0, 1, 147, 196)" filter="url(#Ellipse_39)">
      <g id="Ellipse_39-2" data-name="Ellipse 39" transform="translate(9 12)" fill="#fff" stroke="#69d1ff" stroke-width="2">
        <circle cx="28" cy="28" r="28" stroke="none"/>
        <circle cx="28" cy="28" r="27" fill="none"/>
      </g>
    </g>
    <g id="list" transform="translate(171.648 223.719)">
      <g id="Gruppe_217" data-name="Gruppe 217" transform="translate(0.352 0.281)">
        <path id="Pfad_44" data-name="Pfad 44" d="M1.828.7H16.495V2.417H1.828Z" transform="translate(7.505 1.868)" fill="#69d1ff"/>
        <path id="Pfad_45" data-name="Pfad 45" d="M.352,3.71A3.494,3.494,0,0,0,3.907,7.138,3.494,3.494,0,0,0,7.463,3.71,3.494,3.494,0,0,0,3.907.281,3.5,3.5,0,0,0,.352,3.71ZM3.907,2A1.747,1.747,0,0,1,5.685,3.71,1.747,1.747,0,0,1,3.907,5.424,1.747,1.747,0,0,1,2.129,3.71,1.749,1.749,0,0,1,3.907,2Z" transform="translate(-0.352 -0.281)" fill="#69d1ff"/>
        <path id="Pfad_46" data-name="Pfad 46" d="M1.828,2.109H16.495V3.824H1.828Z" transform="translate(7.505 9.034)" fill="#69d1ff"/>
        <path id="Pfad_47" data-name="Pfad 47" d="M3.907,8.545A3.494,3.494,0,0,0,7.463,5.116,3.494,3.494,0,0,0,3.907,1.688,3.494,3.494,0,0,0,.352,5.116,3.5,3.5,0,0,0,3.907,8.545Zm0-5.143A1.747,1.747,0,0,1,5.685,5.116,1.747,1.747,0,0,1,3.907,6.83,1.747,1.747,0,0,1,2.129,5.116,1.749,1.749,0,0,1,3.907,3.4Z" transform="translate(-0.352 6.884)" fill="#69d1ff"/>
        <path id="Pfad_48" data-name="Pfad 48" d="M1.828,3.516H16.495V5.23H1.828Z" transform="translate(7.505 16.199)" fill="#69d1ff"/>
        <path id="Pfad_49" data-name="Pfad 49" d="M3.907,9.951A3.494,3.494,0,0,0,7.463,6.522,3.494,3.494,0,0,0,3.907,3.094,3.494,3.494,0,0,0,.352,6.522,3.5,3.5,0,0,0,3.907,9.951Zm0-5.143a1.715,1.715,0,1,1,0,3.429A1.747,1.747,0,0,1,2.129,6.522,1.749,1.749,0,0,1,3.907,4.808Z" transform="translate(-0.352 14.049)" fill="#69d1ff"/>
      </g>
    </g>
  </g>
</svg>
