<svg xmlns="http://www.w3.org/2000/svg" width="15.993" height="16" viewBox="0 0 15.993 16">
  <g id="data-unstructured" transform="translate(-3 -3)">
    <path id="Pfad_51" data-name="Pfad 51" d="M5.285,34.142a1.142,1.142,0,1,1-1.142,1.142,1.142,1.142,0,0,1,1.142-1.142m0-1.142a2.285,2.285,0,1,0,2.285,2.285A2.285,2.285,0,0,0,5.285,33Z" transform="translate(0 -18.577)" fill="#113352"/>
    <path id="Pfad_52" data-name="Pfad 52" d="M20.285,4.142a1.142,1.142,0,1,1-1.142,1.142,1.142,1.142,0,0,1,1.142-1.142m0-1.142a2.285,2.285,0,1,0,2.285,2.285A2.285,2.285,0,0,0,20.285,3Z" transform="translate(-9.288 0)" fill="#113352"/>
    <path id="Pfad_53" data-name="Pfad 53" d="M35.285,4.142a1.142,1.142,0,1,1-1.142,1.142,1.142,1.142,0,0,1,1.142-1.142m0-1.142a2.285,2.285,0,1,0,2.285,2.285A2.285,2.285,0,0,0,35.285,3Z" transform="translate(-18.577 0)" fill="#113352"/>
    <path id="Pfad_54" data-name="Pfad 54" d="M21.427,34.142v2.285H19.142V34.142h2.285M22.569,33H18v4.569h4.569Z" transform="translate(-9.288 -18.577)" fill="#113352"/>
    <path id="Pfad_55" data-name="Pfad 55" d="M17.279,14.5V11.567a1.142,1.142,0,0,0-1.142-1.142H5.856V7.569H7.569V3H3V7.569H4.713v2.856a1.142,1.142,0,0,0,1.142,1.142H16.137V14.5a2.285,2.285,0,1,0,1.142,0ZM4.142,4.142H6.427V6.427H4.142ZM16.708,17.85a1.142,1.142,0,1,1,1.142-1.142A1.142,1.142,0,0,1,16.708,17.85Z" transform="translate(0 0)" fill="#113352"/>
  </g>
</svg>
