<svg id="calendar-plus" xmlns="http://www.w3.org/2000/svg" width="27.714" height="27.714" viewBox="0 0 27.714 27.714">
  <g id="Gruppe_318" data-name="Gruppe 318" transform="translate(0 0)">
    <g id="Gruppe_317" data-name="Gruppe 317">
      <path id="Pfad_97" data-name="Pfad 97" d="M53.83,63a.866.866,0,0,1,.866.866v2.6h2.6a.866.866,0,1,1,0,1.732H54.7v2.6a.866.866,0,0,1-1.732,0V68.2h-2.6a.866.866,0,1,1,0-1.732h2.6v-2.6A.866.866,0,0,1,53.83,63Z" transform="translate(-39.973 -50.875)" fill="#9acced"/>
      <path id="Pfad_98" data-name="Pfad 98" d="M6.062,0a.866.866,0,0,1,.866.866v.866H20.785V.866a.866.866,0,1,1,1.732,0v.866H24.25A3.464,3.464,0,0,1,27.714,5.2V24.25a3.464,3.464,0,0,1-3.464,3.464H3.464A3.464,3.464,0,0,1,0,24.25V5.2A3.464,3.464,0,0,1,3.464,1.732H5.2V.866A.866.866,0,0,1,6.062,0ZM1.732,6.928V24.25a1.732,1.732,0,0,0,1.732,1.732H24.25a1.732,1.732,0,0,0,1.732-1.732V6.928Z" transform="translate(0 0)" fill="#9acced"/>
    </g>
  </g>
</svg>
