<svg xmlns="http://www.w3.org/2000/svg" width="24" height="18.367" viewBox="0 0 24 18.367">
  <defs>
    <style>
      .cls-1, .cls-2 {
        fill: #113352;
      }

      .cls-1 {
        fill-rule: evenodd;
      }
    </style>
  </defs>
  <g id="list-ol" transform="translate(-9 -21.006)">
    <g id="Gruppe_329" data-name="Gruppe 329" transform="translate(9 21.006)">
      <g id="Gruppe_328" data-name="Gruppe 328" transform="translate(0)">
        <path id="Pfad_103" data-name="Pfad 103" class="cls-1" d="M45,41.571a.857.857,0,0,1,.857-.857H61.286a.857.857,0,1,1,0,1.714H45.857A.857.857,0,0,1,45,41.571Zm0-6.857a.857.857,0,0,1,.857-.857H61.286a.857.857,0,1,1,0,1.714H45.857A.857.857,0,0,1,45,34.714Zm0-6.857A.857.857,0,0,1,45.857,27H61.286a.857.857,0,1,1,0,1.714H45.857A.857.857,0,0,1,45,27.857Z" transform="translate(-38.143 -25.858)"/>
        <path id="Pfad_104" data-name="Pfad 104" class="cls-2" d="M10.222,37.345v-.813h.492a.543.543,0,1,0,0-1.075.6.6,0,0,0-.639.531H9.067c.027-.8.639-1.349,1.69-1.349,1.008,0,1.635.5,1.641,1.205a1.02,1.02,0,0,1-.843,1.018v.057A1.054,1.054,0,0,1,12.53,38c.005.914-.861,1.371-1.8,1.371-1.125,0-1.714-.634-1.728-1.361h1c.014.305.319.525.723.53.435,0,.727-.249.723-.6a.629.629,0,0,0-.71-.6h-.514Zm-.007-8.055H9.18v-.06a1.475,1.475,0,0,1,1.642-1.447c1,0,1.646.559,1.646,1.3a2.1,2.1,0,0,1-.816,1.454l-.921.981v.051h1.807v.869H9.245v-.677l1.641-1.7a1.354,1.354,0,0,0,.5-.871.558.558,0,0,0-.586-.549.566.566,0,0,0-.586.579Zm1.466-3.713H10.593V22.017h-.053l-1.025.72v-.972l1.078-.759h1.089Z" transform="translate(-9 -21.006)"/>
      </g>
    </g>
  </g>
</svg>
