<svg id="edit" xmlns="http://www.w3.org/2000/svg" width="19.406" height="16.084" viewBox="0 0 19.406 16.084">
  <path id="Pfad_81" data-name="Pfad 81" d="M9.66,12.063l1.262-1.325L9.268,9,8.006,10.327v.64H9.051v1.1Zm4.786-8.225a.218.218,0,0,0-.359.011l-3.807,4a.243.243,0,0,0-.011.377.218.218,0,0,0,.359-.011l3.807-4A.243.243,0,0,0,14.446,3.838Zm.87,6.786v2.17a3.25,3.25,0,0,1-.919,2.325,2.947,2.947,0,0,1-2.214.965H3.133a2.947,2.947,0,0,1-2.214-.965A3.25,3.25,0,0,1,0,12.794V3.29A3.25,3.25,0,0,1,.919.965,2.947,2.947,0,0,1,3.133,0h9.051a2.872,2.872,0,0,1,1.273.286.344.344,0,0,1,.2.263.367.367,0,0,1-.1.331l-.533.56a.308.308,0,0,1-.348.091,1.848,1.848,0,0,0-.49-.069H3.133A1.637,1.637,0,0,0,1.9,2,1.805,1.805,0,0,0,1.392,3.29v9.5A1.805,1.805,0,0,0,1.9,14.085a1.637,1.637,0,0,0,1.229.537h9.051a1.637,1.637,0,0,0,1.229-.537,1.805,1.805,0,0,0,.511-1.291V11.355a.351.351,0,0,1,.1-.251l.7-.731a.316.316,0,0,1,.381-.08A.331.331,0,0,1,15.316,10.624Zm-1.044-8.43L17.4,5.483l-7.31,7.677H6.962V9.87ZM19.1,3.7l-1,1.051-3.133-3.29,1-1.051a1.015,1.015,0,0,1,1.479,0L19.1,2.148a1.085,1.085,0,0,1,.3.777A1.085,1.085,0,0,1,19.1,3.7Z" fill="#113352"/>
</svg>
