<svg xmlns="http://www.w3.org/2000/svg" width="20.63" height="19.902"><g fill="#113352" transform="translate(0 -3)"><ellipse cx="1" cy="1.5" data-name="Ellipse 61" rx="1" ry="1.5" transform="translate(6.094 19.902)"/><ellipse cx="1" cy="1.5" data-name="Ellipse 62" rx="1" ry="1.5" transform="translate(16.094 19.902)"/><path d="M19.9 6.554H4.137l-.583-2.986A.711.711 0 0 0 2.843 3H0v1.421h2.26l2.716 13.648a.711.711 0 0 0 .711.569h12.794v-1.422H6.269l-.583-2.843h12.795a.711.711 0 0 0 .711-.554l1.422-6.4a.711.711 0 0 0-.711-.867Zm-1.99 6.4H5.416l-1-4.976h14.598Z" data-name="Pfad 125"/></g></svg>
